<svg xmlns="http://www.w3.org/2000/svg" width="498.91" height="615.16" fill="#09c">
  <path d="M249.35 0C111.64 0 0 111.63 0 249.34s111.64 249.34 249.35 249.34c137.71 0 249.34-111.63 249.34-249.34S387.08 0 249.35 0zm146.88 319.35a76.18 76.18 0 0 1-8.67 35.38l-122-122-32.48 32.47 150.29 150.25-16.09 16.11.15.15a122.37 122.37 0 0 0-86.55-35.85H178.97a76.5 76.5 0 0 1-76.5-76.5v-140.8a76.5 76.5 0 0 1 76.5-76.5h140.76a76.5 76.5 0 0 1 76.5 76.5z"/>
  <path d="M498.91 615.12v-44.17a23.94 23.94 0 0 0-23.92-23.91h-50.7v6h50.7a17.92 17.92 0 0 1 17.9 17.9v10.19l-2.25-1.52a18.59 18.59 0 0 0-10.42-3.18h-53.58a18.7 18.7 0 0 0-18.68 18.69v1.3a18.7 18.7 0 0 0 18.68 18.69h53.58a18.59 18.59 0 0 0 10.42-3.18l2.25-1.52v4.7zm-18.69-6h-53.58a12.69 12.69 0 0 1-12.67-12.68v-1.3a12.69 12.69 0 0 1 12.67-12.67h53.58a12.68 12.68 0 0 1 12.67 12.67v1.3a12.69 12.69 0 0 1-12.67 12.67z"/>
  <path d="M295.08 585.72v-20a18.71 18.71 0 0 0-18.69-18.69h-53.61a18.71 18.71 0 0 0-18.7 18.7v49.39h91v-6h-85v-23.4zm-84.94-20a12.7 12.7 0 0 1 12.68-12.68h53.57a12.7 12.7 0 0 1 12.69 12.69v14h-79z"/>
  <path d="M126.08 615.12h43.12a23.88 23.88 0 0 0 15.51-5.73l2.39-2v7.77h6v-68.12h-6v44.17a17.92 17.92 0 0 1-17.9 17.9h-43.12a17.92 17.92 0 0 1-17.9-17.9v-44.17h-6v44.17a23.93 23.93 0 0 0 23.9 23.91z"/>
  <path d="M329.94 553.05h43.14a17.93 17.93 0 0 1 17.9 17.64h6a23.94 23.94 0 0 0-23.9-23.65h-43.14a23.91 23.91 0 0 0-15.51 5.74l-2.39 2V547h-6v68.08h6v-44.13a17.92 17.92 0 0 1 17.9-17.9z"/>
  <path d="M67.26 524.17H24.14A24 24 0 0 0 .22 548.09v43.12a23.94 23.94 0 0 0 23.92 23.91h43.12a23.77 23.77 0 0 0 13.66-4.3l1-.7 4.46 4.44 4.25-4.25-4.46-4.46.7-1a23.77 23.77 0 0 0 4.3-13.66v-43.1a23.94 23.94 0 0 0-23.91-23.92zm17.9 67a17.92 17.92 0 0 1-2.3 8.75l-.94 1.66-34.13-34.09-4.25 4.25 34.13 34.13-1.66.94a17.92 17.92 0 0 1-8.75 2.3H24.14a17.92 17.92 0 0 1-17.9-17.9v-43.12a17.92 17.92 0 0 1 17.9-17.9h43.12a17.92 17.92 0 0 1 17.9 17.9z"/>
</svg>
