<svg xmlns="http://www.w3.org/2000/svg" width="108" height="20" viewBox="0 0 108 20">
  <g id="Layer_2" data-name="Layer 2" transform="translate(0 0)">
    <g id="Layer_1" data-name="Layer 1" transform="translate(0 0)">
      <path id="Path_1" data-name="Path 1" d="M120.453,5.67H109.428V8.445h11.025A2.858,2.858,0,0,1,123.3,11.3v.683a4.633,4.633,0,0,0-1.792-.342H110.67a4.55,4.55,0,0,0-4.55,4.55v.258a4.567,4.567,0,0,0,4.558,4.5h10.833a4.5,4.5,0,0,0,1.792-.367v.367h2.717V11.278a5.608,5.608,0,0,0-5.567-5.608Zm-11.567,10.5a1.808,1.808,0,0,1,1.792-1.792h10.833A1.792,1.792,0,0,1,123.3,16.17v.258a1.792,1.792,0,0,1-1.792,1.792H110.678a1.808,1.808,0,0,1-1.792-1.792Z" transform="translate(-18.02 -1.103)" fill="#09c"/>
      <path id="Path_2" data-name="Path 2" d="M100.64,10.112v.708H97.857v-.708c0-1.233-.708-1.667-2.825-1.667H86.3a2.858,2.858,0,0,0-2.85,2.833v9.667H80.69V5.67h2.758v.775a5.483,5.483,0,0,1,2.825-.775h8.758C98.59,5.67,100.64,7.262,100.64,10.112Z" transform="translate(-13.702 -1.103)" fill="#09c"/>
      <path id="Path_3" data-name="Path 3" d="M19.167,17.057A5.54,5.54,0,0,0,20,14.2V5.564a5.559,5.559,0,0,0-1.665-3.947A5.648,5.648,0,0,0,14.342,0H5.625A5.612,5.612,0,0,0,0,5.564V14.2a5.509,5.509,0,0,0,1.667,3.985,5.672,5.672,0,0,0,3.958,1.654h8.717a5.624,5.624,0,0,0,2.867-.827L18.2,20l1.967-1.926Zm-4.808,0H5.625a2.839,2.839,0,0,1-2.842-2.828V5.564A2.855,2.855,0,0,1,5.625,2.737h8.717a2.872,2.872,0,0,1,2.85,2.828V14.2a2.463,2.463,0,0,1-.133.777L10.392,8.367,8.45,10.31l6.667,6.614a3.123,3.123,0,0,1-.775.107Z" transform="translate(0 0)" fill="#09c"/>
      <path id="Path_4" data-name="Path 4" d="M46.86,5.67V20.945H44.077V20.17a5.475,5.475,0,0,1-2.842.775H32.518a5.625,5.625,0,0,1-5.608-5.608V5.67h2.783v9.7a2.842,2.842,0,0,0,2.825,2.85h8.717a2.842,2.842,0,0,0,2.842-2.85V5.67Z" transform="translate(-4.569 -1.103)" fill="#09c"/>
      <path id="Path_5" data-name="Path 5" d="M73.753,15.053V10.22A4.567,4.567,0,0,0,69.2,5.67H58.37a4.567,4.567,0,0,0-4.55,4.55V20.945H73.753V18.22H56.587V15.053Zm-15.4-6.608H69.187a1.792,1.792,0,0,1,1.767,1.792v2.05H56.587V10.22a1.792,1.792,0,0,1,1.767-1.775Z" transform="translate(-9.139 -1.103)" fill="#09c"/>
    </g>
  </g>
</svg>
